<svg xmlns="http://www.w3.org/2000/svg" xmlns:xlink="http://www.w3.org/1999/xlink" viewBox="0 0 1200 1000" id="woman-taking-a-break-from-work"><defs><symbol id="a" viewBox="0 0 654.291 559.725"><path fill="#f5f8fc" d="m.36904,214.54009C-5.04943,121.57472,49.83422,37.51331,123.18783,10.17656c47.11567-17.55864,107.71023-12.00123,150.81425,13.62424,65.16568,38.7412,41.45252,94.27771,102.04796,129.02952,60.75248,34.84189,107.03717-8.10864,177.90663,25.64562,75.5436,35.98051,94.30774,118.76918,96.62949,129.83095,17.84238,85.00815-30.16822,175.19348-113.788,220.39204-118.21531,63.89828-274.08783,19.77125-319.69008-48.08554-25.30433-37.65321-11.01849-74.22446-51.47552-104.18533-37.84037-28.02309-73.39338-13.10339-106.56336-38.46843C37.36032,321.35891,6.6906,289.8741.36904,214.54009Z"></path></symbol><symbol id="e" viewBox="0 0 676.923 305.995"><path fill="#7c4b33" d="M66.71902 305.99469h-23.80466c-2.70414 0-4.77778-2.18414-4.38434-4.61796l5.69444-35.2263c.31986-1.97866 2.18593-3.44487 4.38434-3.44487h16.21207c2.36311 0 4.31049 1.68685 4.42619 3.83403l1.89815 35.2263c.124 2.30124-1.89353 4.2288-4.42619 4.2288zM610.20406 305.99469h23.80466c2.70414 0 4.77778-2.18414 4.38434-4.61796l-5.69444-35.2263c-.31986-1.97866-2.18593-3.44487-4.38434-3.44487h-16.21207c-2.36311 0-4.31049 1.68685-4.42619 3.83403l-1.89815 35.2263c-.124 2.30124 1.89353 4.2288 4.42619 4.2288z"></path><rect width="76.51" height="104.828" x="41.054" y="64.509" fill="#d8baa4"></rect><path fill="#ffede1" d="m24.56423,64.50928h19.39052c11.78796,0,21.35829,9.57033,21.35829,21.35829v188.29688H24.56423c-13.55737,0-24.56423-11.00686-24.56423-24.56423V89.07352c0-13.55737,11.00686-24.56423,24.56423-24.56423Z"></path><rect width="75.577" height="104.828" x="559.36" y="64.509" fill="#d8baa4"></rect><path fill="#ffede1" d="m632.96832,64.50928h19.39052c13.55737,0,24.56423,11.00686,24.56423,24.56423v160.52671c0,13.55737-11.00686,24.56423-24.56423,24.56423h-40.74881V85.86758c0-11.78796,9.57033-21.35829,21.35829-21.35829Z"></path><path fill="#f7e3d5" d="M119.28051 0h205.80095C332.46613 0 338.46154 5.99541 338.46154 13.38007v122.85335H105.90044V13.38007C105.90044 5.99541 111.89585 0 119.28051 0zM351.84161 0h205.80095C565.02723 0 571.02264 5.99541 571.02264 13.38007v122.85335h-232.5611V13.38007C338.46154 5.99541 344.45695 0 351.84161 0z"></path><rect width="546.297" height="82.759" x="65.313" y="191.406" fill="#f7e3d5"></rect><rect width="546.297" height="82.759" x="65.313" y="136.233" fill="#ffede1" rx="17.846" ry="17.846"></rect><rect width="1.113" height="103.979" x="337.905" y="12.944"></rect><rect width="1.113" height="62.812" x="337.905" y="153.846"></rect></symbol><symbol id="g" viewBox="0 0 258.554 935.569"><rect width="15.115" height="715.532" x="121.719" y="209.094" fill="#ffbc97"></rect><path fill="#b8c2d8" d="m70.39445,916.67648h117.76544c10.09221,0,18.28581,8.1936,18.28581,18.28581v.00002H52.10865v-.00002c0-10.09221,8.1936-18.28581,18.28581-18.28581Z"></path><circle cx="49.722" cy="237.716" r="3.182" fill="#ffbc97"></circle><circle cx="49.722" cy="245.666" r="3.182" fill="#ffbc97"></circle><circle cx="49.722" cy="253.616" r="3.182" fill="#ffbc97"></circle><circle cx="49.722" cy="261.567" r="3.182" fill="#ffbc97"></circle><circle cx="49.722" cy="269.517" r="3.182" fill="#ffbc97"></circle><circle cx="49.722" cy="277.468" r="3.182" fill="#ffbc97"></circle><circle cx="49.722" cy="285.418" r="3.182" fill="#ffbc97"></circle><circle cx="49.722" cy="293.368" r="3.182" fill="#ffbc97"></circle><circle cx="49.722" cy="301.319" r="3.182" fill="#ffbc97"></circle><circle cx="49.722" cy="309.269" r="3.182" fill="#ffbc97"></circle><circle cx="49.722" cy="317.219" r="3.182" fill="#ffbc97"></circle><circle cx="49.722" cy="325.17" r="3.182" fill="#ffbc97"></circle><polygon fill="#ffbc97" points="55.291 345.841 44.949 345.841 47.335 330.735 52.109 330.735 55.291 345.841"></polygon><polygon fill="#ffcc83" points="258.554 240.101 0 240.101 45.563 0 212.991 0 258.554 240.101"></polygon><path d="M59.2695 236.73234c-.02253 0-.04506-.00078-.06837-.00388-.33329-.03727-.57258-.33696-.53529-.67004L84.91906 1.52281c.03651-.33308.32785-.57842.67047-.53494.33329.03727.57258.33696.53529.67004l-26.25321 234.53561c-.03418.30978-.29756.53882-.6021.53882zM211.21835 239.91248c-.30455 0-.56714-.22826-.6021-.53805L183.56748 1.65868c-.03807-.3323.20122-.63277.53451-.67081.32242-.04348.63318.20031.67125.53416l27.04876 237.71576c.03807.3323-.20122.63277-.53451.67081-.02331.00311-.04584.00388-.06914.00388zM125.3003 236.73234c-.01165 0-.02253 0-.03341-.00078-.33485-.01786-.59123-.30435-.57336-.6382L137.42237 1.55775c.01865-.33618.32086-.58851.63862-.57298.33485.01786.59123.30435.57336.6382l-12.72883 234.53561c-.01787.32376-.28512.57376-.60521.57376zM206.44581 935.56896H52.10876c-.33485 0-.60676-.27174-.60676-.60637s.27192-.60637.60676-.60637h154.33706c.33485 0 .60676.27174.60676.60637s-.27192.60637-.60676.60637z"></path></symbol><symbol id="h" viewBox="0 0 468.858 799.959"><path fill="#32ce95" d="m403.59049,203.44481l-126.57605,30.7809c-23.01188,5.59605-46.20401-8.51902-51.80548-31.52958l-.00002-.00008c-5.60334-23.01822,8.51746-46.21977,31.537-51.81768l126.57605-30.7809c23.01188-5.59605,46.20401,8.51902,51.80548,31.52958l.00002.00008c5.60334,23.01822-8.51746,46.21977-31.537,51.81769Z"></path><path fill="#32ce95" d="m163.10476,137.99566s-50.2904,7.76223-81.7275,12.59623S-7.29148,340.72914.76931,397.12579l261.97583-22.55866,46.75261-196.58258-45.26977-24.92881-101.12322-15.06008Z"></path><path fill="#7c4b33" d="M444.9191 665.41267c-17.48707 12.74542-41.4028 1.19949-59.95603-5.98469-9.10435-4.02163-17.9407-8.52258-26.69752-13.35129-1.44291-.85406-24.02927-35.48159-25.3915-36.25499-5.17497-2.91651-7.98818 11.376-12.09119 9.668-12.17255-4.8831-26.78253-13.19628-32.24318-18.53033 3.37831-16.67401 10.36791-51.18809 13.70335-67.67597l87.86266-27.39266s-12.09119 48.33998 4.0304 68.48164c14.65594 19.14534 83.18873 61.30225 50.78301 91.0403zM331.28535 97.37034c.25901-6.25468-3.7535-11.87903-9.7575-13.66142-7.54651-2.24031-18.22076-4.82133-27.34561-4.82133-16.12159 0-31.4371 1.61133-31.4371 1.61133 0 0-12.09119 57.20231-10.47903 60.42497 1.61216 3.22267 21.76415 5.63966 29.01886-2.417s16.12159-12.08499 16.92767-11.27933c.80608.80567 29.01886-3.22267 31.4371-15.30766 1.00872-5.04103 1.45642-10.22225 1.63562-14.54957z"></path><path d="m168.08488,111.017c-3.33787,1.94332-7.99864,1.20681-10.57389-1.67092-2.57525-2.87774-2.78973-7.5891-.48658-10.68869-4.22396-.17272-8.6438-2.79837-9.50914-6.93423s3.51412-8.79898,7.42331-7.19048c-1.35995-1.96414-.81584-4.9859,1.14392-6.3529,1.95976-1.367,4.9852-.8351,6.36062,1.11824-1.1525-1.88156-.01624-4.72861,2.11553-5.30075-5.9724-4.49032-8.35036-17.73018-3.37953-23.30801,4.97083-5.57783,12.46606-6.94591,19.34591-4.02833-2.6378-5.56353-11.28511-19.33599,4.14714-30.17529,5.03978-3.53984,13.36889-2.01696,15.72253,3.67249,3.03522-9.16335,10.19466-17.37928,19.58517-19.63291,9.3905-2.25363,20.56515,2.9179,23.21582,12.19966,2.00257-5.53934,8.22666-8.92234,14.10326-8.4848,5.8766.43754,11.18448,4.19731,14.42848,9.11439,3.244,4.91708,4.61623,10.87012,4.93667,16.75126.98818-2.34991,2.02766-4.77487,3.89426-6.5118,1.8666-1.73693,4.80569-2.59653,7.01893-1.32998,1.6961.97061,2.57115,2.89921,3.22969,4.73841,1.96607,5.49092,2.96328,11.32687,2.93197,17.15874.9358-3.59566,5.92949-4.9802,9.10846-3.05455,3.17897,1.92565,4.46305,6.07225,3.96175,9.75363s-2.46198,6.99013-4.55018,10.0638c5.36299,1.07549,8.0428,8.65063,4.54814,12.85643,4.76555.98717,5.78985,8.08145,2.70844,11.84659-3.08142,3.76514-8.30567,4.88308-13.13659,5.47287-4.83092.58978-9.98592.99799-13.87113,3.92754-3.70672,2.79496-5.55169,7.37052-8.53503,10.92669-5.82404,6.9423-15.32002,9.3685-24.21345,11.12014-17.13201,3.3743-34.48395,5.69183-51.90411,6.90348-5.52983.38462-11.84538,1.24812-17.32721.49366-3.4298-.47204-6.49597-2.09795-8.78679-4.6929-.70178-.79495-5.20479-7.85996-3.65636-8.76148Z"></path><path fill="#7c4b33" d="m244.00379,170.00036c5.40876,30.05139.91087,37.78577-48.96933,35.37684-49.97693-2.417-58.03772-58.81364-58.03772-58.81364,40.30397-4.834,62.8742-44.31165,62.8742-44.31165,0,0,4.0304-4.834,24.98846.80567,13.27611,3.5691,18.14486,15.54935,19.92626,23.8477,1.03181,4.80985,1.03181,8.37895,1.03181,8.37895-16.92767,8.05666-4.0304,23.36432-4.0304,23.36432.83835,4.09275,1.59602,7.87133,2.21672,11.35181Z"></path><path fill="#f2f2f2" d="m168.43384,339.92348s24.35084-84.90519,14.59366-136.31272l54.48425-7.372s-7.81587,124.34873-26.3557,146.90739l-42.72221-3.22267Z"></path><path d="m241.78707,158.64855c.83835,4.09275,1.59602,7.87133,2.21672,11.35181-1.85402.14501-3.93367.12087-6.24712-.07248-37.88574-3.22267-32.24318-58.00798-32.24318-58.00798l39.27217,14.98537c1.03181,4.80985,1.03181,8.37895,1.03181,8.37895-16.92767,8.05666-4.0304,23.36432-4.0304,23.36432Z"></path><path fill="#32ce95" d="m235.33844,146.56356s11.28511,48.33998-14.50943,176.44093h24.98846s36.27358-97.48563,31.4371-123.26695l-8.86687-4.02833s0-41.89465-5.64256-48.33998c-5.64256-6.44533-27.4067-.80567-27.4067-.80567Z"></path><path d="m245.81774,323.60867h-24.98846c-.18105,0-.35266-.08104-.46759-.22109-.11493-.14083-.16059-.32494-.12516-.50275,13.31527-66.12758,16.54824-110.53679,16.91586-136.14738.39753-27.70343-2.37416-39.91668-2.40249-40.03627-.07478-.31943.11965-.64044.43689-.72227.90369-.23446,22.19395-5.65776,28.01362.99213,4.28938,4.90009,5.41821,28.64285,5.70947,42.35964.01889.89772-.30071,1.67506-.94935,2.31-1.08632,1.06373-2.94723,1.524-4.51373,1.71991l14.03948,5.81905c.18892.07789.32511.24626.36289.44611,4.81207,25.6515-29.98159,119.60211-31.46465,123.58953-.08816.23604-.31409.39339-.56677.39339Zm-24.25008-1.2085h23.82894c1.20203-3.25728,9.59581-26.17471,17.37715-51.54376,10.93324-35.64523,15.74925-60.0662,13.94423-70.68699l-16.2192-6.72228c-.27079-.11172-.42193-.40205-.35896-.68765.06297-.28718.31881-.49331.61558-.47364,1.28626.04485,4.93724-.11487,6.35968-1.50905.40619-.39811.59747-.86231.58567-1.42093-.48963-23.06141-2.46153-38.22037-5.41034-41.58859-4.84592-5.53502-22.83787-1.56727-26.24324-.75531,1.13591,5.89458,9.38484,56.50522-14.47952,175.38821Z"></path><path fill="#7c4b33" d="m196.78319,86.97509c3.40768-2.8608,7.93532-3.62306,12.22734-2.50342,8.21811-17.34716,23.92348-24.25166,39.52438-18.58503,16.88834,6.13426,27.25144,24.66687,19.75014,45.29768-7.50128,20.63075-15.66422,36.59908-32.55262,30.4648-9.45715-3.43507-19.64196-13.07383-25.45938-24.5128-5.47424-1.85134-11.11762-5.56907-14.14111-9.16683-5.56446-6.62146-5.27294-16.02098.65127-20.99439Z"></path><path d="m196.82874,99.40605l-.90054-.90637c3.20228-3.17939,7.39956-5.43589,11.81883-6.35406l.25977,1.25099c-4.17918.86861-8.14896,3.00237-11.17806,6.00945Z"></path><path fill="#fff" d="m200.65618,95.60659c.1238,2.01917.2476,4.03834.3714,6.05752"></path><polygon points="200.389 101.703 200.018 95.646 201.294 95.567 201.666 101.625 200.389 101.703"></polygon><ellipse cx="238.904" cy="98.727" rx="2.834" ry="2.033" transform="rotate(-69.999 238.904 98.727)"></ellipse><ellipse cx="258.992" cy="105.3" rx="2.834" ry="2.033" transform="rotate(-69.999 258.992 105.3)"></ellipse><path d="M253.50384 118.81993c-3.02122-2.61291-4.91598-6.39576-5.19937-10.37689-.28417-3.98348 1.05483-7.99608 3.67459-11.01025l.96509.83871c-2.39856 2.75925-3.62421 6.43353-3.36444 10.08027.25977 3.64595 1.99473 7.10938 4.76169 9.50198l-.83757.96617zM242.30217 125.01821c-5.34972-2.15972-9.14318-7.47916-9.44073-13.23763l1.27682-.06609c.26843 5.18962 3.82179 10.17232 8.64253 12.11883l-.47861 1.1849z"></path><path d="m242.66191,143.60833c-2.27654,0-4.66172-.45555-7.14766-1.35799-9.75954-3.54525-19.82137-13.18334-25.693-24.59328-5.40719-1.88199-11.07808-5.58695-14.17881-9.27696-2.79294-3.32259-4.26026-7.4233-4.13273-11.54605.1291-4.1495,1.8554-7.82456,4.86245-10.34856,3.32272-2.78915,7.77268-3.78443,12.28641-2.75768,8.3001-17.05668,23.99346-24.29273,40.09458-18.44142l-.4361,1.20063c-15.58709-5.65855-30.79161,1.50512-38.72881,18.2581l-.22671.47836-.51246-.13375c-4.28151-1.11645-8.52838-.25098-11.65509,2.37451-2.72367,2.28639-4.28859,5.62865-4.40589,9.40993-.11808,3.80803,1.24376,7.6019,3.8336,10.68452,3.0102,3.58144,8.57876,7.18727,13.85607,8.97248l.24718.0834.11808.2321c5.6276,11.06532,15.71698,20.79075,25.10733,24.20225,3.19834,1.16051,6.19988,1.53816,8.92198,1.12353.02362-.01023,8.87396-2.40834,13.56166-10.74196l.18027-.32022c2.60795-4.62629,9.53441-16.91663,11.51576-32.23924l1.26895.16365c-2.01362,15.56966-9.02982,28.01736-11.67083,32.70344l-.17948.31865c-4.96164,8.82063-14.03554,11.26595-14.41969,11.36587-.80687.12431-1.62948.18568-2.46704.18568Z"></path><path fill="#7c4b33" d="m417.13357,198.85934l-34.39545,9.52298c-14.5175,4.02027-30.00225-1.28098-39.01427-13.33377l-46.5753-62.31832-5.27976-7.06566c-11.003-23.63827-8.29449-40.78283,26.49583-42.74865,5.80373,1.38572,11.55118,2.90844,17.22591,4.57618,34.50821,10.12723,66.50156,25.5477,94.42416,47.52625,23.49714,18.49812,15.93621,55.85686-12.88113,63.84099Z"></path><path fill="#32ce95" d="m160.37305,131.2559s49.17085,73.31564,8.06079,208.66758h-24.98846s12.09119-95.06863-6.44864-140.18594l14.50943-8.86233-14.50943.80567s5.79418-34.74724-5.27317-47.28839c-.93191-1.05601-.67575-2.69585.5271-3.42889,6.23061-3.79705,22.32465-12.927,28.12238-9.70769Z"></path><path fill="#ffbc97" d="m444.9191,665.41267c-17.48707,12.74542-41.4028,1.19949-59.95603-5.98469-9.10438-4.02105-17.94065-8.52241-26.69752-13.35129-1.44291-.85406-24.02927-35.48159-25.3915-36.25499-5.17497-2.91651-7.98818,11.376-12.09119,9.668-12.49991-4.74263-26.10733-13.44444-32.24318-18.53033l7.7223-38.12419c21.46722,27.70702,117.08325,123.61873,135.24394,47.16374,18.12075,18.40955,31.67886,38.97814,13.41317,55.41375Z"></path><path d="m168.43411,340.52766h-24.98846c-.17397,0-.33849-.07474-.45342-.20456-.11493-.13061-.16846-.3037-.14642-.476.12044-.94886,11.85897-95.4274-6.4077-139.87988-.11335-.27459-.00945-.59087.24403-.74508l12.45881-7.61056-12.11008.6727c-.19207.01101-.36211-.06373-.48412-.19984-.1228-.1369-.17633-.32179-.14642-.50275.05746-.34461,5.61973-34.60825-5.1301-46.78923-.56126-.63572-.81002-1.48151-.68249-2.32022.12831-.84265.61952-1.58065,1.34924-2.02439,19.17666-11.68924,26.23143-11.1086,28.72996-9.71992.08344.04642.15508.11172.2086.19119.12359.18489,12.44149,18.83324,19.53719,53.79318,6.54074,32.22823,9.8729,85.34713-11.40004,155.3866-.07714.25492-.31251.4288-.57858.4288Zm-24.30597-1.2085h23.85728c21.0423-69.5438,17.74319-122.27875,11.25756-154.2914-6.7399-33.26363-18.21315-51.63739-19.2908-53.31166-5.76063-2.91503-22.39468,6.7207-27.38624,9.76398-.42351.25728-.70847.68529-.78246,1.17309-.074.48466.07006.97246.39359,1.33989,4.69085,5.31551,7.02486,14.98823,6.93827,28.75064-.05432,8.47366-1.06192,15.96462-1.40749,18.29272l13.76475-.76475c.29283-.0181.52899.15893.61086.42408.08265.26436-.02519.55075-.26213.69473l-14.07097,8.59482c17.29607,42.91983,7.40743,130.70127,6.37779,139.33386Z"></path><path fill="#32ce95" d="m65.25567,255.32851s24.98846-62.03631,50.78301-62.84197c25.79454-.80567,66.9046,147.43694,66.9046,147.43694l-93.50522,28.19832-24.18238-112.79329Z"></path><path fill="#112e5b" d="m.76931,393.09745v66.46747h212.80498l117.6876-47.93715v126.48961l58.8438-32.22665,24.64248-104.14907c14.97225-63.27877-40.04871-121.06873-104.02431-109.25948l-222.0919,40.99595L.76931,393.09745Z"></path><path fill="#112e5b" d="m363.80332,437.06272l-9.06033,158.50679-4.94127,81.92816c.07262.21755.14504.43509.22573.64457l-.01614.20948-73.56282,15.25927-17.91106-66.56415-44.96314-167.07909,106.95864-51.76406c20.7163-10.02244,44.5843,5.88947,43.27039,28.85902Z"></path><path fill="#ffbc97" d="m457.55031,797.20354c-2.20865,1.78059-4.94924,2.75541-7.78666,2.75541h-83.39695c-3.35332,0-6.5616-1.33743-8.91529-3.73024-9.29412-9.41829-33.72634-33.49151-41.50502-34.13608-9.67295-.80567-3.22432,37.86632-3.22432,37.86632h-33.04926s-.80608-3.22267-8.06079-29.00399c-7.25472-25.78132-6.44864-40.28332-6.44864-40.28332l4.00619-3.20654s.00807,0,.00807-.00806c5.13472-2.73929,15.62989-4.78561,33.87148,5.6316,28.21278,16.11333,55.61948,38.67198,71.74107,37.86632,15.40417-.77341,62.47116-10.36892,53.95084-18.94929,13.07468,4.59226,29.22845,11.40826,36.33006,18.94929,9.57623,10.16751-1.28971,21.22929-7.52078,26.24857Z"></path><path fill="#7c4b33" d="m374.79019,770.95496c-16.12159.80567-43.52829-21.75299-71.74107-37.86632-27.10039-15.47682-37.09579-3.44828-37.83732-2.48152,10.43062-15.2996,11.2367-36.99613,11.2367-36.99613l-17.91106-66.56415c39.63486-.64457,96.20557-31.47734,96.20557-31.47734l-4.94127,81.92816c.07262.21755.14504.43509.22573.64457,19.4506,56.61419,62.70495,63.84099,77.1579,72.67106,14.50943,8.86233-36.27358,19.33599-52.39517,20.14166Z"></path><path fill="#32ce95" d="m417.13357,198.85934l-34.39545,9.52298c-14.5175,4.02027-30.00225-1.28098-39.01427-13.33377l-46.5753-62.31832c15.41233-11.40015,31.89662-35.23984,38.44198-45.23813,34.50821,10.12723,66.50156,25.5477,94.42416,47.52625,23.49714,18.49812,15.93621,55.85686-12.88113,63.84099Z"></path><path d="M272.82141 198.32755c-.07478 0-.15114-.01416-.22435-.04327l-28.21278-11.27933c-.31015-.12353-.46129-.47522-.33692-.78521.12438-.30921.47704-.46027.78561-.33674l28.21278 11.27933c.31015.12353.46129.47522.33692.78521-.09446.23604-.32117.38002-.56126.38002zM151.10419 191.88222c-.2149 0-.42272-.11487-.53214-.31629-.15901-.29347-.05038-.66011.24324-.81904l19.34591-10.47366c.2952-.15972.66045-.04878.81946.24312.15901.29347.05038.66011-.24324.81904l-19.34591 10.47366c-.09131.04957-.1905.07317-.28732.07317zM80.9737 336.90216c-.27079 0-.51797-.18411-.58567-.45869l-20.95807-84.59496c-.08029-.32415.11729-.65224.44082-.73171.32196-.08261.65179.11644.73208.4406l20.95807 84.59496c.08029.32415-.11729.65224-.44082.73171-.04881.01259-.09761.0181-.14642.0181z"></path><path fill="#32ce95" d="m.76931,393.09745v66.87031s26.60062,23.36432,54.8134,12.89066c28.21278-10.47366,51.03814-141.81634,91.08698-149.85394,0,0-29.01886-11.27933-71.74107,3.22267S.76931,393.09745.76931,393.09745Z"></path><path d="M54.17864 337.09256c-.19837 0-.39281-.09756-.50852-.27616-.18105-.28009-.10076-.65382.17948-.83556 6.97841-4.51614 14.00484-7.99057 20.88486-10.32575 22.16561-7.52401 40.58343-8.00159 52.13382-7.08026 12.5391 1.00315 19.7214 3.74981 20.02053 3.86625.31173.12116.46523.47128.34479.78206-.12123.31235-.4731.46263-.78246.34461-.2889-.11251-29.33452-11.02441-71.3278 3.23132-6.78555 2.3037-13.72224 5.73408-20.61721 10.19671-.10155.0653-.2149.09677-.32747.09677zM329.24776 175.76889c-.18341 0-.36447-.08261-.48333-.23997l-32.24318-42.70032c-.20152-.26672-.14799-.64516.11808-.84658.26686-.20299.64549-.1487.84701.11802l32.24318 42.70032c.20152.26672.14799.64516-.11808.84658-.10942.08261-.23694.12195-.36368.12195zM359.0727 523.81675c-.01102 0-.02204 0-.03306-.00079-.33298-.0181-.58882-.30212-.5715-.63572l4.53262-85.06861c.56599-10.61922-4.37204-20.49571-13.20821-26.4194-8.83617-5.92369-19.85286-6.74195-29.46756-2.18962l-106.89448 50.60828c-.30307.14162-.66202.01416-.80529-.28718-.14327-.30212-.01417-.66168.28732-.80488l106.89448-50.60828c10.00436-4.73565 21.46501-3.88435 30.65857 2.27774 9.19356 6.16366 14.33153 16.43906 13.74271 27.48786l-4.53262 85.06861c-.01732.32179-.28417.57199-.60299.57199zM176.09187 317.56617c-.25977 0-.49986-.16837-.57858-.42958-11.39532-37.8081-34.45124-91.61386-46.71404-115.91839-.15035-.29819-.0307-.66168.26764-.81196.29992-.15106.66281-.03068.81238.26751 12.28248 24.34466 35.37618 78.24011 46.79118 116.11351.09682.32022-.08423.65696-.40383.75295-.05825.0181-.11729.02596-.17476.02596zM200.81851 81.10849s18.61353 8.48189 25.56744 2.68993c8.07393-6.72483 6.05545-13.44965 6.05545-13.44965 0 0 9.41958 2.68993 14.12938-1.34497 4.70979-4.0349 2.01848-10.08724 2.01848-10.08724 0 0-30.27724-8.06979-47.77075 22.19193z"></path><path d="m248.20649,63.90106c-.34189,2.86293.76406,5.86177,2.88323,7.81801s5.19781,2.82028,8.02607,2.25256c-1.27873,2.89075-.43412,11.84424,8.98547,12.51672-2.01848,8.74227,7.31364,7.76901,9.84275,6.73814s4.43971-3.28809,5.42431-5.83447c1.5061-3.89511.89997-8.53576-1.55613-11.91387-1.90966-2.62655-4.73841-4.39881-7.37404-6.2968-3.6224-2.60858-7.08333-5.61277-11.29437-7.09546s-10.43732-3.30541-13.20886.19309l-1.72842,1.62208Z"></path></symbol><symbol id="i" viewBox="0 0 536.974 814.423"><path fill="#ffcc83" d="m190.38297,321.57642l-.00006-.00002c-16.70248-6.26541-25.16732-24.8811-18.91007-41.58664l49.48344-132.11039c6.26157-16.71709,24.89294-25.18905,41.60696-18.91931l.00006.00002c16.70248,6.26541,25.16732,24.8811,18.91007,41.58664l-49.48344,132.11039c-6.26157,16.71709-24.89294,25.18905-41.60696,18.91931Z"></path><path fill="#ffcc83" d="m356.36722,97.93936l44.4833,4.26221c54.35133,5.20772,92.11695,56.53203,80.95406,110.01835l-30.45808,145.93801H181.97904l44.44277-208.03203c2.37327-11.10905,10.39662-20.15753,21.13637-23.83694l69.10459-23.67502,39.70445-4.67458Z"></path><path fill="#112e5b" d="m285.26861,113.06615s13.48823,44.08462,21.27342,52.65469c0,0,25.69112-44.40856,46.71112-57.65321,0,0-49.5535,11.55524-67.98454,4.99852Z"></path><path fill="#fad0c9" d="m291.75017,87.03199s1.55704,23.37292-11.67778,30.3848c0,0-5.63776,18.84706,35.81186,14.02375,33.4763-3.89549,51.38223-32.72209,51.38223-32.72209,0,0-31.14075-21.03563-38.92593-43.62946,0,0-10.89926-6.23278-23.35556-.7791-12.4563,5.45368-16.34889,19.47744-13.23482,32.72209Z"></path><path fill="#f90065" d="M305.76351 165.72084s48.9678-67.43014 38.88649-86.30415c0 0 10.9387-4.07116 22.61648 19.30177 0 0 5.44963 16.36105 5.44963 22.59383s-28.02667 3.89549-37.3689 14.02375c-9.34222 10.12827-23.35556 27.26841-29.58371 30.3848zM290.30211 102.20755s-5.55861 26.11661 15.4614 62.73419c0 0-14.01334-20.25653-20.24149-21.03563-3.8503-.48165-10.67596-.96329-15.32667-1.26086-2.57622-.16484-4.35322-2.64445-3.68684-5.14028 2.54808-9.54346 8.77041-30.31938 15.89943-35.67012 4.6711-3.50593 7.75794-4.08605 8.56371-3.11639 0 .7791-.66954 3.48909-.66954 3.48909z"></path><path fill="#fad0c9" d="m337.38361,34.68874c-3.69694-3.16659-8.63978-4.04711-13.34409-2.86495-8.80956-19.07493-25.91187-26.79346-43.02764-20.74823-18.52824,6.54411-30.04763,26.72806-22.0552,49.3906,7.99242,22.66248,16.75567,40.22733,35.28397,33.6832,10.37546-3.66457,21.60957-14.11348,28.08661-26.5776,6.0044-1.9712,12.21272-5.98398,15.55519-9.89204,6.15151-7.19254,5.92824-17.48598-.49884-22.99099Z"></path><path d="m337.20654,48.29695c-3.28133-3.32258-7.60044-5.69943-12.15979-6.69156l.29651-1.36799c4.82165,1.04996,9.38784,3.563,12.85772,7.07655l-.99444.983Z"></path><path fill="#fff" d="m333.06115,44.09903c-.15587,2.2093-.31175,4.41861-.46762,6.62791"></path><polygon points="333.29 50.777 331.896 50.678 332.364 44.05 333.758 44.149 333.29 50.777"></polygon><ellipse cx="291.209" cy="47.127" rx="2.224" ry="3.103" transform="rotate(-19.398 291.209 47.127)"></ellipse><ellipse cx="269.178" cy="54.118" rx="2.224" ry="3.103" transform="rotate(-19.398 269.178 54.118)"></ellipse><path d="M275.03985 68.97575l-.90472-1.06669c3.04869-2.59065 4.9813-6.3644 5.3029-10.35424.3216-3.98907-.98227-8.02379-3.57708-11.07018l1.06438-.90844c2.83429 3.3279 4.25828 7.73467 3.90704 12.09123-.35125 4.35732-2.46252 8.47953-5.79251 11.30833zM287.22701 75.87578l-.51242-1.30255c5.29073-2.08165 9.22742-7.50186 9.57335-13.17999l1.39586.08521c-.38394 6.30126-4.58672 12.08742-10.45678 14.39733z"></path><path d="M294.47316 94.80922l-.46529-1.31929c10.30321-3.63985 21.43435-14.18505 27.69899-26.24052l.13153-.25336.27066-.08902c5.79023-1.90057 11.91498-5.79149 15.24194-9.68242 5.89135-6.88786 5.70204-16.75897-.42195-22.00418-3.39157-2.9064-8.02619-3.89701-12.71935-2.71771l-.56184.14152-.24329-.5265c-8.50745-18.42292-25.05401-26.42464-42.16013-20.38283l-.46529-1.31929c17.67253-6.24191 34.75052 1.8397 43.65255 20.59815 4.94785-1.07887 9.80219.0563 13.40664 3.14302 6.7094 5.74737 6.96789 16.50408.57553 23.97779-3.42731 4.00733-9.6661 8.00629-15.59774 10.01186-6.5353 12.43132-17.63527 22.88066-28.34295 26.66279zM392.9576 205.47832s6.22815 13.87219-18.68445 63.64888c-24.9126 49.77669-14.01334-13.05618-9.34222-25.29635 4.67111-12.24017 16.34889-43.2486 28.02667-38.35253z"></path><polygon fill="#fff" points="311.213 176.005 304.206 176.005 305.141 164.786 306.542 164.786 311.213 176.005"></polygon><path fill="#fad0c9" d="m272.28721,227.26954s-1.55704,16.36105,2.33556,24.15202c2.33556,4.67458,47.48964,5.45368,37.3689-9.34917-10.12074-14.80285-39.70445-14.80285-39.70445-14.80285Z"></path><path fill="#fad0c9" d="m386.72945,209.3503l-62.41215-28.14067c-5.44639-2.45569-11.59128-2.8633-17.31274-1.14459-22.41472,6.73332-80.302,24.28278-91.54922,29.28526-14.01334,6.23278-7.00667,24.93112,10.12074,21.03563,17.12741-3.89549,45.9326-12.46556,45.9326-12.46556,0,0,37.3689,42.07126,51.38223,43.62946s30.36223-3.11639,30.36223-3.11639c0,0,24.13408-2.33729,35.03334-20.25653,10.89926-17.91924-1.55704-28.82661-1.55704-28.82661Z"></path><path d="M346.10781 257.66038c-12.95048 0-26.07733-6.10876-33.82147-16.45615-.19311-.25792-.14065-.62389.11784-.8179.25925-.19249.62418-.14075.81729.11793 9.62809 12.865 27.82216 18.98594 43.26101 14.56015.30943-.09358.63407.08978.72226.4002.08895.31042-.09047.63378-.3999.7228-3.47064.99594-7.07737 1.47298-10.69703 1.47298zM290.58589 255.00658c-.3885 0-.77472-.00304-1.15865-.00837-6.85461-.09967-14.25206-1.16332-15.32709-3.31573-3.92224-7.85032-2.45872-23.79367-2.39486-24.46853.02889-.29977.28054-.52878.58161-.52878.07451 0 7.55711.0213 16.17859 1.86329 8.00643 1.71036 18.67076 5.38825 24.00787 13.19368 1.69921 2.48566 2.03069 4.73393.98531 6.68243-2.61001 4.86632-13.31237 6.582-22.87279 6.582zm-17.76224-27.14364c-.22124 2.8752-1.06058 16.52995 2.32111 23.2976.60898 1.21886 6.12399 2.55033 14.2992 2.66902 9.75809.14532 20.67256-1.64569 22.98607-5.95736.82185-1.53385.51242-3.37355-.92069-5.46966-9.08829-13.29259-34.65168-14.44222-38.68569-14.5396z"></path><path fill="#fad0c9" d="m283.18647,189.87286l-20.88359,25.81656c-3.16141,3.90817-2.8154,9.58581.79716,13.08055l16.97236,16.41881s5.44963,3.11639,11.67778-3.11639c0,0,14.01334,7.01188,24.9126-1.55819,0,0,19.46297,7.01188,28.02667-7.79097,8.56371-14.80285-13.23482-12.46556-13.23482-12.46556l-6.22815-9.34917,5.44963-12.46556"></path><path d="m283.57847,246.53085c-2.28462,0-3.76715-.8179-3.79604-.83464-.04258-.02435-.08135-.05326-.11632-.0875l-16.97232-16.41887c-3.85762-3.73191-4.22027-9.69383-.84466-13.86778l14.23838-17.60197c.20375-.25184.57172-.28836.82109-.08674.25089.20314.28966.57139.08667.8217l-14.23838,17.60197c-2.99243,3.69995-2.67084,8.98473.74887,12.29285l16.91453,16.36257c.60442.31423,5.37056,2.49783,10.91675-3.05324.17714-.17728.45008-.22064.6736-.10956.13761.06924,13.81719,6.7395,24.29145-1.49505.15814-.12402.36797-.15749.55804-.09054.19083.07,19.10792,6.66874,27.32342-7.53381,2.04817-3.53942,2.45416-6.3081,1.20731-8.22846-2.90728-4.47829-13.76549-3.37355-13.87421-3.3629-.22352.02435-.42803-.07684-.54816-.25716l-6.22815-9.34917c-.11024-.16586-.12849-.37585-.04942-.55845l5.44963-12.46556c.13001-.29597.47365-.42835.7694-.30129.29499.12934.43031.474.30107.76997l-5.3219,12.17264,5.8579,8.79376c2.0056-.17119,11.61164-.71595,14.62307,3.9206,1.5061,2.31979,1.11076,5.49933-1.17538,9.45188-8.10982,14.01539-25.85914,8.96647-28.42049,8.15085-10.01126,7.62435-22.56716,2.64163-24.90347,1.60461-3.12244,2.9939-6.08294,3.7593-8.29229,3.7593Z"></path><path d="M316.66323 241.09847c-.20071 0-.39534-.10271-.50406-.28836l-12.96948-22.06505c-1.7395-2.9589-2.09531-6.51733-.97695-9.76307l4.72889-13.72475c.10568-.30433.43716-.46868.74203-.36216.30487.105.46681.43748.36189.74258l-4.72889 13.72475c-1.00736 2.92238-.68653 6.12626.87963 8.79072l12.96948 22.06505c.16346.27771.07071.63606-.20755.79964-.09275.05478-.19463.08065-.29499.08065zM291.75063 242.65667c-.18779 0-.37177-.08978-.48429-.25716l-13.10861-19.39298c-3.00612-4.44709-2.91184-10.35728.23492-14.7047l7.76998-10.73846c.18931-.26097.55424-.32031.81501-.13086.26153.18945.32007.55465.13077.81562l-7.76998 10.73846c-2.86014 3.95255-2.94605 9.3233-.21364 13.36563l13.10861 19.39298c.18094.26705.111.62997-.15662.81105-.10036.06771-.21364.10043-.32616.10043zM185.09357 346.27663c-.04105 0-.08211-.0038-.12316-.01293-.31475-.06771-.51622-.37814-.44856-.69388l42.81853-200.22806c.06766-.31575.38698-.51737.69337-.44889.31475.06771.51622.37814.44856.69388l-42.81853 200.22806c-.05854.2739-.30107.46183-.5702.46183z"></path><path fill="#af92cb" d="m320.49189,284.41124l-169.48781,22.89813-73.83781-87.95602c-4.69513-6.03916-4.40934-25.31555,12.02325-27.53563l134.02233-18.10667c5.22317-.70566,10.42731,1.42116,13.66376,5.58407l83.61628,105.11613Z"></path><path d="m150.73688,308.00043l-.2296-.2739-73.83763-87.95661c-2.7423-3.52648-3.9747-11.5031-1.21187-18.27455,1.67032-4.09331,5.39337-9.20613,13.64536-10.32076l134.02229-18.10641c5.4329-.73649,10.89622,1.49961,14.26194,5.82801l84.3233,106.00519-170.9738,23.09902Zm74.44053-133.77271c-.62418,0-1.25141.04185-1.87863.1263l-134.02229,18.10641c-7.63769,1.0317-11.07717,5.74965-12.61824,9.52568-2.58797,6.34158-1.48557,13.74605,1.01952,16.9682l73.59282,87.66445,168.00266-22.6973-82.90464-104.22255c-2.69897-3.47094-6.86298-5.47118-11.19121-5.47118Z"></path><path fill="#624e76" d="m305.60608,286.3101l-159.61887,21.56481-68.82094-88.52157c-4.69513-6.03916-1.07965-14.89912,6.49763-15.92282l134.1-18.11717c5.22317-.70566,10.42731,1.42116,13.66376,5.58407l74.17842,95.41267Z"></path><path d="m145.70463,308.56801l-69.0502-88.81635c-2.34924-3.02205-2.88751-6.94188-1.44148-10.48586s4.57304-5.96649,8.36451-6.47853l134.09984-18.11706c5.42606-.73116,10.89622,1.49961,14.26194,5.82878l74.87084,96.30375-1.1176.15065-159.98787,21.61463Zm74.02314-122.73829c-.62342,0-1.24989.04185-1.87711.1263l-134.09984,18.11706c-3.32619.44965-6.06925,2.57391-7.33739,5.68346-1.26889,3.10878-.796,6.54777,1.26433,9.19776l68.59251,88.22747,158.13128-21.36355-73.48562-94.52187c-2.6944-3.46638-6.85918-5.46662-11.18816-5.46662Z"></path><polygon fill="#90d8e0" points="245.821 294.235 89.324 315.378 117.797 268.306 274.294 247.163 245.821 294.235"></polygon><path d="m88.08361,316.19236l29.3237-48.48056.30335-.04032,157.82413-21.32247-29.3237,48.4798-.30335.04109-157.82413,21.32247Zm30.10221-47.29213l-27.62069,45.66394,154.86743-20.92379,27.62069-45.66318-154.86743,20.92303Z"></path><polygon points="245.821 294.235 274.294 247.163 305.606 286.31 245.821 294.235"></polygon><ellipse cx="167.636" cy="232.75" fill="#fff" rx="13.358" ry="19.194" transform="rotate(-63.265 167.636 232.75)"></ellipse><path d="M172.82202 247.98861c-8.63213 0-18.10968-5.3426-22.06614-12.77979-2.14169-4.02407-2.38649-8.0664-.68805-11.38213 1.71137-3.34236 5.17517-5.52368 9.75277-6.14224 9.25251-1.24777 20.33196 4.40449 24.69592 12.60555h0c2.14169 4.02483 2.38649 8.06716.68805 11.38289-1.71137 3.34236-5.17517 5.52368-9.75277 6.14224-.86291.11641-1.74254.17347-2.62978.17347zm-10.34502-29.4581c-.85074 0-1.69237.05402-2.51954.16586-4.237.57291-7.42634 2.56022-8.98186 5.59672-1.54107 3.00911-1.29931 6.71515.68044 10.43641 4.17922 7.85412 14.78805 13.27129 23.65891 12.07373 4.237-.57291 7.42634-2.56022 8.98109-5.59596 1.54183-3.00987 1.30007-6.71667-.67968-10.43793h0c-3.78996-7.12144-12.86989-12.23883-21.13937-12.23883zM284.26616 248.75432h0c-1.1012.67169-2.65745.35698-3.47598-.70293l-17.42778-22.56696c-.81854-1.05991-.5894-2.46365.5118-3.13534h0c1.1012-.67169 2.65745-.35698 3.47598.70293l17.42777 22.56695c.81854 1.05991.5894 2.46365-.5118 3.13534z"></path><path fill="#fad0c9" d="m150.23274,205.69942c-5.18553-1.70518-10.2937-.24461-10.2937-.24461,2.42204-3.3328,1.53005-6.53493-.46472-9.20395-3.69758-4.94739-10.34445-6.65609-16.11131-4.45104-16.13278,6.16854-54.31992,22.14731-57.38325,36.24881-2.71104,12.48002,21.00841,46.49534,35.6598,65.99879,5.49753-9.30114,11.05132-20.81114,19.11666-21.65239,5.61518-.36397,31.72293-2.50282,32.41762-10.84521.77852-9.34917-36.48879-4.52275-36.48879-4.52275l26.27529-10.12361c2.38478-.91881,5.99423-2.32397,7.87794-4.05198,9.34222-8.57007,1.55704-18.69834-7.78519-14.80285l8.96684-5.30256c6.94014-4.104,5.87111-14.52829-1.78721-17.04666Z"></path><path d="M100.23504 224.73742c-.21972 0-.42955-.12402-.52915-.33553-.13685-.29216-.01216-.63986.27978-.77758l39.70445-18.69834c.29423-.13923.63939-.01141.777.27999.13685.29216.01216.63986-.27978.77758l-39.70445 18.69834c-.08059.03804-.16498.05554-.24785.05554zM109.57726 244.21486c-.21972 0-.42955-.12402-.52915-.33553-.13685-.29216-.01216-.63986.27978-.77758l39.70445-18.69834c.29347-.13923.63939-.01141.777.27999.13685.29216.01216.63986-.27978.77758l-39.70445 18.69834c-.08059.03804-.16498.05554-.24785.05554zM124.52421 272.67931c-.30867 0-.5664-.24195-.58237-.55389-.01673-.3226.23112-.59726.55272-.614 21.35072-1.11082 27.41009-8.18052 27.46863-8.25204.20527-.24879.57248-.28531.82109-.08141.24937.20314.28738.56911.08439.81942-.24861.30738-6.35207 7.53838-28.31329 8.68115-.01064.00076-.02053.00076-.03117.00076z"></path><path fill="#ffcc83" d="m506.32402,357.36985l-.00008.00003c-22.77868,8.80723-48.38326-2.52614-57.1791-25.30921l-55.24953-143.10781c-8.78963-22.76698,2.53398-48.34953,25.29657-57.15054l.00008-.00003c22.77868-8.80723,48.38326,2.52614,57.1791,25.30921l55.24953,143.10781c8.78963,22.76698-2.53398,48.34953-25.29657,57.15054Z"></path><path fill="#fad0c9" d="m528.77135,341.34645l-.00005.00008c-13.19608,20.55213-40.54203,26.50744-61.07889,13.30155l-120.90305-95.81202c-11.54758-9.15111-11.0604-26.84078.97332-35.34148l16.08742-11.36427c7.80084-5.51057,18.06511-6.06647,26.41465-1.4306l125.21493,69.52245c20.53686,13.20589,26.48774,40.57217,13.29167,61.1243Z"></path><path fill="#ffcc83" d="m494.94355,365.9489c-14.47273,4.13701-111.95881-62.57712-134.10763-77.91755,2.28101.16363,6.45395-4.9395,13.43724-18.90091,24.9126-49.77655,18.68445-63.65228,18.68445-63.65228h-.00779l.00779-.02335s94.97928,35.05939,131.03252,81.88313c36.05325,46.82379-12.69769,73.93637-29.04658,78.61096Z"></path><path d="M479.74692 249.5605c-.10948 0-.22048-.03043-.31855-.0951-38.6013-25.25524-83.50449-42.27517-86.51669-43.40425-.17182-.01065-.33148-.09815-.43412-.2389-.10948-.15065-.14065-.34542-.08363-.52346.04866-.15141.16118-.28836.30411-.35759s.31247-.08902.46149-.035c.46529.17195 47.03272 17.49241 86.90747 43.58077.2699.17651.34592.53867.16954.80877-.11252.17195-.29879.26477-.48962.26477zM448.90344 345.92817c-.10112 0-.20299-.02587-.29651-.08141-33.81995-20.00546-75.9854-48.94239-88.10338-57.33442-.26533-.18412-.33148-.5478-.14825-.81334.18399-.26401.54664-.33249.81273-.14836 12.10961 8.38671 54.24618 37.30386 88.03343 57.2903.2775.16434.36949.5227.20527.8004-.10872.18412-.30335.28684-.5033.28684z"></path><path d="m401.08385,208.15802c-.23416,0-.4554-.14228-.54435-.37357l-7.17165-18.57737c-6.50185-16.83961-2.32415-35.8324,10.64229-48.38545.23264-.22369.60214-.21836.82566.0137.22428.23206.2182.60182-.01368.82627-12.62888,12.2259-16.6971,30.72338-10.36555,47.12399l7.17165,18.57737c.11632.30129-.03345.63986-.33376.75551-.06918.02739-.14065.03956-.2106.03956Z"></path><path fill="#b8c2d8" d="m451.3465,358.15792H146.7737c-53.31551,0-92.10577,50.63247-78.26501,102.15839l69.8733,260.12195s81.74446,51.42043,181.39485,21.03563c0,0-10.89926-90.37531-8.56371-111.41094,2.33556-21.03563,21.79852-133.22567,21.79852-133.22567l64.59964,4.72909h.00008c39.10196,5.39582,72.27865-28.58503,65.98106-67.58033l-12.24594-75.82811Z"></path><path fill="#112e5b" d="m233.36127,798.34801H16.48928c-4.39076,0-8.36908-1.91655-11.24956-5.01734-2.87269-3.10089-4.65553-7.38592-4.65553-12.1228.03117-.64671.07014-1.29333.13229-1.92435,4.15736-45.67859,80.00838-48.54561,97.4628-66.63623,18.79345-19.47744,29.63816-33.50119,29.63816-33.50119,23.85392-3.11639,25.62117,25.71022,44.0954,35.05939,18.47423,9.34917,57.11202,8.57007,57.11202,8.57007l2.83391,49.39471,1.50249,26.17775Z"></path><path d="m233.97907,798.93228H16.48954c-4.41262,0-8.5599-1.84807-11.67702-5.20337-3.10343-3.34997-4.81252-7.7963-4.81252-12.5211.03193-.68475.07223-1.3406.13533-1.98122,2.76359-30.36502,36.98496-42.10094,64.48172-51.53076,14.62003-5.01316,27.24587-9.34308,33.14254-15.45413,18.5514-19.22788,29.48792-33.31327,29.59663-33.45326l.14749-.19097.23873-.03119c14.52424-1.89296,20.97895,7.635,27.8138,17.72751,4.54871,6.71667,9.25251,13.6616,16.62031,17.39046,18.13477,9.17646,56.44564,8.51149,56.83718,8.50692l.56184-.01141,4.4035,76.75252Zm-105.84965-119.23692c-1.37533,1.75449-12.10505,15.29816-29.53049,33.35739-6.0913,6.31419-18.84106,10.68596-33.60327,15.74857-27.17821,9.32102-61.00196,20.91999-63.69788,50.53558-.06082.62465-.0996,1.26223-.13077,1.89905.00076,4.40068,1.59885,8.56551,4.50081,11.69788,2.8936,3.11411,6.73753,4.8298,10.82171,4.8298h216.25333l-4.26893-74.3962c-2.24052.0213-10.88862.04413-21.12416-.78899-10.97225-.89246-26.07277-2.97944-35.70086-7.85184-7.63693-3.86505-12.42741-10.9378-17.05975-17.77697-6.58852-9.73035-12.81287-18.91822-26.45975-17.25427Z"></path><path d="M233.36127 798.34801H16.48928c-4.39076 0-8.36908-1.91655-11.24956-5.01734-2.87269-3.10089-4.65553-7.38592-4.65553-12.1228.03117-.64671.07014-1.29333.13229-1.92435l231.14231-7.11326 1.50249 26.17775zM181.97798 737.79291c-.31171 0-.57096-.24727-.58237-.56226l-11.57286-306.61595c-.64547-17.08841 5.61993-33.19229 17.64288-45.34439 12.02294-12.15286 28.08141-18.56672 45.1328-18.10945l187.623 5.21554c.32236.00913.57629.27771.56792.6003-.00988.3226-.30031.56682-.59985.56835l-187.623-5.21554c-16.76856-.46411-32.47807 5.84247-44.27141 17.76327-11.79258 11.92004-17.93862 27.71578-17.30607 44.47779l11.57286 306.61595c.01216.3226-.23873.59345-.56108.60563-.0076.00076-.01521.00076-.02281.00076z"></path><path d="m326.00545,540.27191c-.03041,0-.06158-.00228-.09275-.00761-.31855-.05098-.53523-.35075-.48429-.66878l12.4563-77.90975c.05094-.31879.35049-.53639.66828-.48465.31855.05098.53523.35075.48429.66878l-12.4563,77.90975c-.04562.2876-.29347.49226-.57553.49226Z"></path><path d="m335.47844,486.7683c-.16422,0-.32768-.06924-.44324-.2039-.20984-.24499-.18171-.61323.0631-.82399,11.41168-9.80567,18.70117-24.03029,19.99972-39.02639.02813-.32107.32007-.56378.63179-.53183.3216.02739.55956.31118.53143.63226-1.32439,15.29892-8.76062,29.80961-20.40266,39.8131-.11024.09434-.24557.14075-.38014.14075Z"></path><path fill="#7c4b33" d="m315.01639,48.46468c-.24025.89592-1.53107.92076-1.78152.02765-1.15439-4.11655-3.41477-7.85341-2.502-12.03152.72818-3.33316.81365-9.57994-3.01388-11.42838-2.8939-1.39755-7.06286,1.18495-11.41989,3.01612-12.95119,5.44312-37.21125,15.16249-52.14985,6.17039-4.57501-2.75387-11.21098-10.8358-13.14366-15.81624-1.93269-4.98044-2.62852-10.34057-3.30923-15.63977,13.14742,3.73127,27.18377,4.28392,40.58348,1.5979,8.65621-1.73517,17.22304-4.8135,26.03655-4.30483s18.24989,6.03474,19.43684,14.78924c5.11077-3.70542,12.80979-3.25801,17.45763,1.01451,4.55597,4.18806,1.6152,16.25677,1.6152,16.25677-4.30231-.95969-9.30594-.69683-12.63654,3.48653-2.82355,3.54649-3.96034,8.33897-5.17312,12.86163Z"></path><path fill="#112e5b" d="m336.45265,790.55704c-.64604,11.97472-1.88395,22.59383-1.88395,22.59383,0,0-196.96522,1.55819-227.32745,0-12.21491-.63111-28.00329-3.91888-32.69778-14.80285-1.21453-2.81253-1.96188-5.39139-2.27321-7.79097-1.45592-11.4527,7.14675-18.79183,24.07174-26.48931,16.84716-7.66639,66.95261-48.30404,66.95261-48.30404,0,0,7.00667-30.3848,27.24815-31.943s17.90593,31.1639,60.72446,35.83848c42.81853,4.67458,63.34806-17.17134,63.34806-17.17134,0,0,1.26899,10.93856,14.50381,38.20697,4.56211,9.39596,6.6252,18.97101,7.37255,27.49438.56051,6.35737.38147,14.64698-.03896,22.36786Z"></path><path d="m336.45265,790.55704c-.64604,11.97472-1.88395,22.59383-1.88395,22.59383,0,0-196.96522,1.55819-227.32745,0-12.21491-.63111-28.00329-3.91888-32.69778-14.80285-1.21453-2.81253-1.96188-5.39139-2.27321-7.79097h264.1824Z"></path><path d="m179.60973,814.42293c-33.70134,0-62.33395-.17195-72.39843-.68856-10.18689-.52574-28.04492-3.194-33.20413-15.15512-1.2362-2.86227-1.99343-5.46205-2.31655-7.94695-1.59505-12.55001,8.60476-19.90807,24.4093-27.09646,16.12917-7.33904,63.60133-45.61829,66.67435-48.10242.66524-2.65608,8.16076-30.68914,27.72332-32.1956,8.91647-.68932,13.51232,4.94316,19.31547,12.07297,7.65518,9.40547,17.18291,21.11096,41.51694,23.7678,21.98783,2.39816,37.92313-2.36392,47.42197-6.7821,10.26367-4.77425,15.38715-10.1549,15.43809-10.20892l.85835-.91377.14673,1.24625c.01292.1088,1.43463,11.20485,14.44897,38.01904,4.04921,8.34106,6.54898,17.6598,7.42938,27.69905.48581,5.51151.47289,13.0651-.03801,22.45079-.63939,11.85537-1.87483,22.52307-1.887,22.62959l-.06006.5128-.51546.0038c-1.30995.01065-88.10718.6878-154.96323.6878Zm12.29056-130.07124c-.42727,0-.86443.01674-1.31299.05174-19.57777,1.50722-26.65514,31.19205-26.72433,31.49182l-.04486.19554-.15586.12706c-.50178.40629-50.35662,40.77252-67.07881,48.38165-18.3849,8.3616-25.03956,15.61847-23.73418,25.88369.30791,2.37381,1.03777,4.87164,2.22988,7.63272,4.90908,11.38137,22.27597,13.9393,32.1922,14.45135,29.2355,1.50189,215.51206.08978,226.77473.00304.25241-2.26349,1.26585-11.70016,1.82313-22.0445v-.00076c.50786-9.33015.52231-16.8282.04105-22.28493-.86747-9.89621-3.32923-19.078-7.31686-27.28972-10.92739-22.51546-13.71455-33.83977-14.37142-37.26201-1.8353,1.70808-6.75654,5.84323-14.97812,9.66796-9.63417,4.48133-25.79299,9.31341-48.04008,6.8833-24.81072-2.70858-34.50571-14.61949-42.29622-24.19083-5.28541-6.49375-9.52013-11.69711-17.00729-11.69711Z"></path></symbol><symbol id="d" viewBox="0 0 502.962 449.193"><polygon points="13.393 449.008 7.895 447.934 53.831 212.781 59.329 213.855 13.393 449.008"></polygon><polygon points="311.521 449.008 265.585 213.855 271.083 212.781 317.019 447.934 311.521 449.008"></polygon><polygon points="497.549 449.193 434.807 214.04 440.22 212.596 502.962 447.75 497.549 449.193"></polygon><path fill="#7c4b33" d="m17.49289,0h273.80926v207.15902H0V17.49289C0,7.8383,7.8383,0,17.49289,0Z"></path><path fill="#562f20" d="m291.30215,0h186.41861c9.65459,0,17.49289,7.8383,17.49289,17.49289v189.66613h-203.9115V0h0Z"></path><rect width="110.919" height="20.156" x="78.427" y="24.635" fill="#562f20"></rect><rect width="291.302" height="12.318" y="207.159" fill="#ffbc97"></rect><rect width="203.911" height="12.318" x="291.302" y="207.159" fill="#422117"></rect><rect width="412.305" height="5.599" x="43.135" y="281.064"></rect></symbol><symbol id="f" viewBox="0 0 301.673 356.925"><path fill="#ffbc97" d="m282.80628,351.0318c.53575,0,.8039.64154.43399,1.0288-2.51016,2.62792-6.05093,4.26308-9.97601,4.26308H14.40008c-7.62058,0-13.79827-6.17299-13.79827-13.78777v-23.90007c0-7.61474,6.17767-13.78771,13.79821-13.78771h258.86424c4.13188,0,7.83788,1.812,10.36408,4.68662.20664.23514.04128.60526-.2719.60526h-66.58516c-3.98843,0-7.2217,3.2308-7.2217,7.2162v26.45939c0,3.9854,3.23326,7.2162,7.2217,7.2162h66.03499Z"></path><path fill="#b8c2d8" d="m300.73776,262.03203h-47.85798v36.56207h47.34546c-2.46018,3.76689-6.71618,6.25404-11.55469,6.25404H29.80637c-7.62058,0-13.79827-6.17299-13.79827-13.78777v-23.90007c0-7.61474,6.17767-13.78771,13.79821-13.78771h258.86424c5.53459,0,10.30804,3.25653,12.5064,7.95713.15269.32648-.07855.70231-.4392.70231Z"></path><rect width="12.036" height="50.513" x="78.115" y="253.854" fill="#ffcc83"></rect><path fill="#ffcc83" d="m252.87978,269.24823v22.12967c0,3.9854,3.23326,7.2162,7.2217,7.2162h39.8734c-2.49389,3.49264-6.62471,5.77296-11.30433,5.77296h-34.66581c-5.14153,0-9.30956-4.16486-9.30956-9.30247v-31.90845c0-5.13761,4.16803-9.30247,9.30956-9.30247h34.66581c5.47975,0,10.21598,3.13316,12.44148,7.67254.11427.23309-.06321.50582-.32296.50582h-40.68759c-3.98843,0-7.2217,3.2308-7.2217,7.2162Z"></path><path d="m288.67056,252.77124H29.80637c-7.95295,0-14.40008,6.44223-14.40008,14.38912v23.90002c0,7.94689,6.44714,14.38912,14.40008,14.38912h258.86419c5.17552,0,9.7252-2.74695,12.2624-6.85539h-1.44434c-2.38317,3.41571-6.34546,5.65269-10.81806,5.65269H29.80637c-7.28821,0-13.19647-5.90376-13.19647-13.18642v-23.90002c0-7.28266,5.90826-13.18642,13.19647-13.18642h258.86419c5.45477,0,10.14887,3.32904,12.1565,8.05809h0c.63311,0,1.03626-.66579.75569-1.2329-2.35216-4.75442-7.25546-8.02789-12.91219-8.02789Z"></path><rect width="13.48" height="50.513" x="35.266" y="305.329" fill="#ffcc83"></rect><rect width="65.477" height="50.513" x="70.893" y="305.329" fill="#ffcc83"></rect><path d="m283.61366,351.0318c-.17343,0-.33621.07646-.45064.20668-2.41477,2.74787-5.95739,4.48385-9.89876,4.48385H14.40008c-7.28821,0-13.19647-5.90376-13.19647-13.18642v-23.90007c0-7.28262,5.90823-13.18636,13.19641-13.18636h258.86424c4.03928,0,7.65977,1.82331,10.07664,4.69053h0c.63265,0,.96183-.75313.53443-1.21922-2.63206-2.87032-6.41605-4.674-10.61107-4.674H14.40008c-7.95295,0-14.40008,6.44223-14.40008,14.38912v23.90007c0,7.94686,6.44711,14.38906,14.40002,14.38906h258.86424c4.30313,0,8.17377-1.89785,10.81226-4.89803.3398-.38638.0519-.9952-.46286-.9952h0Z"></path><path fill="#efefef" d="m298.6172,262.03203v36.56207h-38.51572c-3.98639,0-7.2217-3.23284-7.2217-7.2162v-22.12967c0-3.98336,3.23531-7.2162,7.2217-7.2162h38.51572Z"></path><path d="M298.6172 267.70398v1.16418h-38.51572c-.32253 0-.58253-.2598-.58253-.58209s.26-.58209.58253-.58209h38.51572zM298.6172 275.40126v1.16418h-38.51572c-.32253 0-.58253-.2598-.58253-.58209s.26-.58209.58253-.58209h38.51572zM298.6172 283.09853v1.16418h-38.51572c-.32253 0-.58253-.2598-.58253-.58209s.26-.58209.58253-.58209h38.51572zM298.6172 290.79581v1.16418h-38.51572c-.32253 0-.58253-.2598-.58253-.58209s.26-.58209.58253-.58209h38.51572z"></path><path fill="#efefef" d="m280.32223,310.14001v40.89179h-63.55094c-3.98639,0-7.2217-3.23284-7.2217-7.2162v-26.45939c0-3.98336,3.23531-7.2162,7.2217-7.2162h63.55094Z"></path><path d="M280.32223 316.29305v1.16418h-59.69937c-.32253 0-.58253-.2598-.58253-.58209s.26-.58209.58253-.58209h59.69937zM280.32223 324.95248v1.16418h-59.69937c-.32253 0-.58253-.2598-.58253-.58209s.26-.58209.58253-.58209h59.69937zM280.32223 333.61192v1.16418h-59.69937c-.32253 0-.58253-.2598-.58253-.58209s.26-.58209.58253-.58209h59.69937zM280.32223 342.27136v1.16418h-59.69937c-.32253 0-.58253-.2598-.58253-.58209s.26-.58209.58253-.58209h59.69937z"></path><path fill="#f90065" d="m206.61085,16.10745s-1.10538-19.88574-14.36993-15.46669c-13.26455,4.41905-2.21076,16.57145,7.73766,18.78098,9.94841,2.20953,6.63228-3.31429,6.63228-3.31429Z"></path><path fill="#f90065" d="M201.08395 16.10745s3.31614-18.78098 15.47531-15.46669 0 16.57145-8.84304 16.57145-6.63228-1.10476-6.63228-1.10476zM197.76781 16.10745s-16.58069-11.04763-22.10759-1.10476 9.94841 12.1524 15.47531 8.83811c5.5269-3.31429 6.63228-7.73334 6.63228-7.73334z"></path><path fill="#32ce95" d="m177.87098,184.03148s22.10759-35.35243,15.47531-64.07627c-6.63228-28.72385-17.68607-48.60959-44.21518-48.60959s-44.21518,29.82861-36.47752,60.76198c7.73766,30.93337,34.26676,55.23817,34.26676,55.23817l30.95062-3.31429Z"></path><path fill="#32ce95" d="m186.71402,111.1171s-.81644-32.90345,11.05379-47.50482c14.36993-17.67621,34.26676-20.9905,47.53132-6.62858,13.26455,14.36192,2.21076,46.40006-7.73766,58.55246-9.94841,12.1524-33.16138,26.51432-55.26897,22.09527-22.10759-4.41905,4.42152-26.51432,4.42152-26.51432Z"></path><path fill="#32ce95" d="m223.19154,52.56464s4.42152-30.93337-13.26455-37.56195c-17.68607-6.62858-29.84524,11.04763-23.21297,25.40956,6.63228,14.36192,24.31835,18.78098,24.31835,18.78098l12.15917-6.62858Z"></path><path fill="#7c4b33" d="m125.27517,175.19337h70.92487c4.52573,0,8.20005,3.67432,8.20005,8.20005v45.68127c0,12.94357-10.50854,23.45211-23.45211,23.45211h-40.42075c-12.94357,0-23.45211-10.50854-23.45211-23.45211v-45.68127c0-4.52573,3.67432-8.20005,8.20005-8.20005Z"></path><path d="M164.38395 111.20199c-.37566 0-.71569-.25677-.80529-.63761-.72648-3.06615-.86466-6.33513-.40048-9.45198.06693-.45313.4944-.75521.94238-.69803.45338.06797.76535.48981.69842.94185-.43395 2.91079-.30549 5.96292.37242 8.82624.10579.44557-.16948.89223-.6153.99688-.06477.0151-.12846.02266-.19215.02266zM148.06125 112.79117c-.10147 0-.20402-.01834-.30333-.05718l-8.46414-3.32616c-.42639-.1683-.63581-.6484-.46849-1.07455.1684-.42723.65416-.6333 1.07515-.46823l8.46414 3.32616c.42639.1683.63581.6484.46849 1.07455-.12846.3269-.4415.52541-.77182.52541zM135.30945 142.85713c-.0842 0-.16948-.01295-.25368-.03992-3.9649-1.27091-8.24933-1.71433-12.39126-1.26875-.44582.0561-.86358-.28051-.91215-.73687-.04858-.4542.28174-.8631.73728-.91165 4.36754-.46607 8.88945-.00216 13.07349 1.33996.43611.13917.67575.60633.53542 1.04219-.11227.35063-.43827.57504-.78909.57504zM158.48571 148.08749c-.1155 0-.23209-.02374-.34327-.07444-3.43596-1.56113-6.37212-4.03498-8.49113-7.15615-.25799-.37868-.15868-.8933.22021-1.15008.37782-.26001.8938-.15859 1.15072.22009 1.94845 2.86872 4.64821 5.14298 7.80674 6.57787.41668.1888.60127.68077.41128 1.09721-.13817.30532-.44042.48549-.75455.48549zM214.30737 108.29012c-.1263 0-.25583-.02913-.37674-.09063-3.08189-1.57731-5.6478-4.14178-7.22707-7.22196-.20834-.40673-.0475-.90625.36054-1.11555.4102-.20606.90892-.04747 1.11617.36034 1.42059 2.7727 3.73174 5.08148 6.50598 6.50127.40804.2093.56888.70774.36054 1.11555-.14681.2859-.43827.45097-.73944.45097zM224.83546 93.23772c-.35299 0-.68007-.22656-.79125-.58043l-2.25394-7.18851c-.13709-.43694.10687-.90194.54297-1.03895.44042-.1381.90136.10573 1.03953.54267l2.25394 7.18851c.13709.43694-.10687.90194-.54297 1.03895-.08312.02589-.16624.03776-.24828.03776zM235.52764 74.33267c-.02375 0-.0475-.00108-.07125-.00324-.45554-.03776-.79449-.4391-.75563-.89546.20402-2.41991-.32168-4.9272-1.48212-7.05905-.21805-.40242-.06909-.90517.33248-1.12418.40696-.21685.90568-.06905 1.12481.33229 1.31264 2.41451 1.90851 5.25194 1.67642 7.99119-.0367.43155-.39833.75845-.82472.75845zM208.1166 67.80767c-.18999 0-.38105-.06473-.5365-.19743-.34975-.29561-.39185-.81886-.09499-1.16734l5.54957-6.52609c.29793-.34955.82148-.39055 1.16799-.09494.34975.29669.39185.81886.09499 1.16734l-5.54957 6.52609c-.16408.19312-.39725.29237-.63149.29237zM210.07152 35.17723c-.43719 0-.80205-.342-.82688-.78326l-.59047-10.77144c-.02483-.45744.326-.84799.78262-.87281.44366-.03668.84739.32582.87329.78218l.59047 10.77144c.02483.45636-.32492.84799-.78262.87281-.01511.00108-.03023.00108-.04642.00108zM194.07699 36.48266c-.21266 0-.42423-.08092-.58615-.24275l-3.5914-3.5894c-.32384-.32366-.32384-.84799 0-1.17165s.84847-.32366 1.17231 0l3.5914 3.5894c.32384.32366.32384.84799 0 1.17165-.16192.16183-.3735.24275-.58615.24275zM208.76752 47.25087c-.17272 0-.34759-.05394-.49656-.16615-.36594-.27403-.44042-.79297-.16516-1.15979l1.95924-2.61087c.27203-.36574.79341-.44126 1.16043-.16507.36594.27403.44042.79297.16516 1.15979l-1.95924 2.61087c-.16192.21685-.41128.33121-.66388.33121zM127.96364 90.81242c-.08096 0-.163-.01187-.24396-.03668-.43719-.13486-.68331-.59769-.54837-1.03572l1.95924-6.36318c.13493-.43694.60019-.68185 1.03629-.54807.43719.13486.68331.59769.54837 1.03572l-1.95924 6.36318c-.11011.35603-.43719.58475-.79233.58475zM179.99743 145.64817c-.03778 0-.07556-.00216-.11442-.00755-.45338-.06257-.77074-.48118-.70813-.9343l1.01254-7.3374c.06261-.4542.47929-.77679.93482-.70774.45338.06257.77074.48118.70813.9343l-1.01254 7.3374c-.05721.41537-.41344.71529-.8204.71529zM158.32703 166.67751c-.11011 0-.22021-.02158-.32708-.06689-2.34461-1.00659-4.92455-1.49639-7.47966-1.40145-.46633-.00755-.84091-.342-.85818-.79944-.01619-.45744.34219-.84044.79989-.8577 2.80447-.09602 5.62513.43263 8.19211 1.53523.42099.18125.6153.6689.43503 1.08858-.13493.31395-.4415.50167-.76211.50167z"></path><path d="M187.79014 93.66927c-.03454 0-.07017-.00216-.10579-.00647-.45446-.05826-.77506-.47255-.71785-.92675 1.71852-13.49559 5.13613-23.46975 10.15783-29.64628 6.27605-7.7204 13.68447-12.88927 21.42212-14.94775.45122-.1176.89812.14673 1.0147.58691.11766.44234-.14573.89654-.58723 1.01414-7.3987 1.96894-14.5081 6.94469-20.56286 14.39105-4.75507 5.84964-8.14354 15.813-9.79945 28.81124-.05397.4186-.4102.72392-.82148.72392zM194.58758 132.17092c-.4577 0-.82796-.37005-.82903-.82749-.00648-3.95622-.41668-7.72579-1.2198-11.20191-3.37011-14.59496-7.42569-24.91112-12.76584-32.46645-.26447-.37329-.17595-.89115.19862-1.15439.37566-.26432.89164-.17586 1.15504.19851 5.46861 7.73658 9.60838 18.2383 13.02707 33.04904.83119 3.59803 1.25651 7.49168 1.26298 11.57304.00108.45744-.37026.82857-.82796.82965h-.00108z"></path></symbol><symbol id="c" viewBox="0 0 491.084 263.947"><path fill="#f2f2f2" d="M80.09971 2.49156c-1.54415-1.54153-3.68087-2.49156-6.03304-2.49156-4.71333 0-8.52889 3.80908-8.52889 8.51441v17.47694h17.05778V8.51441c0-2.34818-.95164-4.48127-2.49585-6.02285zm-.64637 18.71378h-10.77333v-11.04185c0-2.9666 2.41502-5.37752 5.38667-5.37752 1.49029 0 2.83695.60053 3.80657 1.57741.9786.96797 1.5801 2.31235 1.5801 3.80011v11.04185zM423.05082 2.49156c-1.54415-1.54153-3.68087-2.49156-6.03304-2.49156-4.71333 0-8.52889 3.80908-8.52889 8.51441v17.47694h17.05778V8.51441c0-2.34818-.95164-4.48127-2.49585-6.02285zm-.64637 18.71378h-10.77333v-11.04185c0-2.9666 2.41502-5.37752 5.38667-5.37752 1.49029 0 2.83695.60053 3.80657 1.57741.9786.96797 1.5801 2.31235 1.5801 3.80011v11.04185z"></path><rect width="491.084" height="250.951" y="12.996" fill="#7c4b33"></rect><rect width="464.151" height="218.686" x="13.467" y="29.128" fill="#ffbc97"></rect><path d="m477.61806,248.48601H13.46695c-.37174,0-.67333-.30109-.67333-.67219V29.12796c0-.3711.3016-.67219.67333-.67219h464.15111c.37174,0,.67333.30109.67333.67219v218.68586c0,.3711-.3016.67219-.67333.67219Zm-463.47778-1.34438h462.80444V29.80015H14.14028v217.34148Z"></path><path d="M13.91584 29.80015c-.19551 0-.38927-.0849-.52253-.24857L1.72219 15.21152c-.23497-.28796-.19025-.71158.09819-.94527.28669-.23457.71103-.19168.94688.09803l11.67111 14.34006c.23497.28796.19025.71158-.09819.94527-.1245.10153-.27442.15054-.42434.15054zM478.06695 29.80015c-.14992 0-.29984-.04901-.42434-.15054-.28845-.23369-.33316-.65731-.09819-.94527l11.67111-14.34006c.23584-.28971.66018-.33259.94687-.09803.28845.23369.33316.65731.09819.94527l-11.67111 14.34006c-.13326.16367-.32702.24857-.52253.24857zM489.73894 263.72232c-.20253 0-.4033-.09103-.53569-.26345l-11.67111-15.23631c-.2262-.29496-.16921-.71683.12537-.94264.29809-.22669.71892-.16805.94424.12516l11.67111 15.23631c.2262.29496.16921.71683-.12537.94264-.12274.09365-.26653.13829-.40856.13829zM1.34695 262.82607c-.15781 0-.31563-.05514-.44363-.1663-.27968-.24419-.30773-.66956-.06313-.94877l12.56889-14.34006c.24549-.28008.67158-.30546.95038-.06302.27968.24419.30773.66956.06313.94877l-12.56889 14.34006c-.13326.15142-.32001.22931-.50675.22931z"></path><polygon fill="#f2f2f2" points="103.298 108.896 86.114 115.065 100.058 103.294 103.298 108.896 103.298 108.896"></polygon><ellipse cx="100.081" cy="106.948" fill="#f90065" rx="6.183" ry="11.875" transform="rotate(-25.092 100.081 106.948)"></ellipse><path fill="#f90065" d="m115.53669,104.39811l-2.29208,1.23492-6.06863,3.25433c-2.35758,1.26396-5.29732.29781-6.44698-2.11385-.96779-2.04123-.33474-4.48929,1.51348-5.8041l6.21417-4.42385,1.82641-1.30027c1.84822-1.29304,4.40957-.71192,5.48648,1.25669l1.48439,2.69497c1.0333,1.89598.24742,4.27133-1.71725,5.20116Z"></path><path fill="#ba0055" d="m115.53669,104.39811l-.0068.00366c-1.25815.67786-2.8286.20002-3.49414-1.06316l-2.53482-4.81105c-.59821-1.1354-.26413-2.53741.78214-3.28227h0c1.84822-1.29304,4.40957-.71192,5.48648,1.25668l1.48439,2.69497c1.0333,1.89598.24742,4.27133-1.71725,5.20116Z"></path><polygon fill="#f2f2f2" points="80.854 148.331 63.67 154.5 77.614 142.729 80.854 148.331 80.854 148.331"></polygon><ellipse cx="77.637" cy="146.383" fill="#32ce95" rx="6.183" ry="11.875" transform="rotate(-25.092 77.637 146.383)"></ellipse><path fill="#32ce95" d="m93.09225,143.83326l-2.29208,1.23492-6.06863,3.25433c-2.35758,1.26396-5.29732.29781-6.44698-2.11385-.96779-2.04123-.33474-4.48929,1.51348-5.8041l6.21417-4.42385,1.82641-1.30027c1.84822-1.29304,4.40957-.71192,5.48648,1.25669l1.48439,2.69497c1.0333,1.89598.24742,4.27133-1.71725,5.20116Z"></path><path fill="#1aa069" d="m93.09225,143.83326l-.0068.00366c-1.25815.67786-2.8286.20002-3.49414-1.06316l-2.53482-4.81105c-.59821-1.1354-.26413-2.53741.78214-3.28227h0c1.84822-1.29304,4.40957-.71192,5.48648,1.25668l1.48439,2.69497c1.0333,1.89598.24742,4.27133-1.71725,5.20116Z"></path><polygon fill="#f2f2f2" points="131.129 169.841 113.945 176.01 127.89 164.239 131.129 169.841 131.129 169.841"></polygon><ellipse cx="127.912" cy="167.893" fill="#112e5b" rx="6.183" ry="11.875" transform="rotate(-25.092 127.913 167.893)"></ellipse><path fill="#112e5b" d="m143.3678,165.34335l-2.29208,1.23492-6.06863,3.25433c-2.35758,1.26396-5.29732.29781-6.44698-2.11385-.96779-2.04123-.33474-4.48929,1.51348-5.8041l6.21417-4.42385,1.82641-1.30027c1.84822-1.29304,4.40957-.71192,5.48648,1.25669l1.48439,2.69497c1.0333,1.89598.24742,4.27133-1.71725,5.20116Z"></path><path fill="#0a1e3a" d="m143.3678,165.34335l-.0068.00366c-1.25815.67786-2.8286.20002-3.49414-1.06316l-2.53482-4.81105c-.59821-1.1354-.26413-2.53741.78214-3.28227h0c1.84822-1.29304,4.40957-.71192,5.48648,1.25668l1.48439,2.69497c1.0333,1.89598.24742,4.27133-1.71725,5.20116Z"></path></symbol><symbol id="b" viewBox="0 0 481.273 204.138"><rect width="481.273" height="204.138" fill="#b8c2d8"></rect><rect width="89.549" height="89.549" x="7.427" y="9.761" fill="#f9f9ff"></rect><rect width="89.549" height="89.549" x="101.645" y="9.761" fill="#f9f9ff"></rect><rect width="89.549" height="89.549" x="195.862" y="9.761" fill="#f9f9ff"></rect><rect width="89.549" height="89.549" x="290.08" y="9.761" fill="#f9f9ff"></rect><rect width="89.549" height="89.549" x="384.297" y="9.761" fill="#f9f9ff"></rect><rect width="89.549" height="89.549" x="7.427" y="104.828" fill="#f9f9ff"></rect><rect width="89.549" height="89.549" x="101.645" y="104.828" fill="#f9f9ff"></rect><rect width="89.549" height="89.549" x="195.862" y="104.828" fill="#f9f9ff"></rect><rect width="89.549" height="89.549" x="290.08" y="104.828" fill="#f9f9ff"></rect><rect width="89.549" height="89.549" x="384.297" y="104.828" fill="#f9f9ff"></rect><polygon fill="#fff" points="65.243 194.377 60.664 194.377 7.427 149.025 7.427 145.125 65.243 194.377"></polygon><polygon fill="#fff" points="96.976 59.654 96.976 63.597 35.255 9.761 39.779 9.761 96.976 59.654"></polygon><polygon fill="#fff" points="290.08 16.777 379.629 94.884 379.629 98.831 290.08 20.719 290.08 16.777"></polygon><polygon fill="#e8e8e8" points="384.7 99.31 384.297 99.31 384.297 98.958 384.7 99.31"></polygon><polygon fill="#fff" points="337.625 104.828 379.629 141.466 379.629 145.409 333.106 104.828 337.625 104.828"></polygon><polygon fill="#fff" points="440.289 194.377 435.764 194.377 384.297 149.483 384.297 145.536 440.289 194.377"></polygon><polygon fill="#fff" points="285.411 186.304 285.411 190.247 195.862 112.136 195.862 108.193 285.411 186.304"></polygon><polygon fill="#fff" points="285.411 163.739 285.411 167.682 213.352 104.828 217.876 104.828 285.411 163.739"></polygon><polygon fill="#fff" points="384.297 76.371 410.593 99.31 406.073 99.31 384.297 80.318 384.297 76.371"></polygon><polygon fill="#fff" points="473.846 154.483 473.846 158.425 412.397 104.828 416.921 104.828 473.846 154.483"></polygon><polygon fill="#fff" points="313.812 9.761 379.629 67.17 379.629 75.06 304.768 9.761 313.812 9.761"></polygon><polygon fill="#fff" points="357.785 9.761 379.629 28.817 379.629 36.702 348.741 9.761 357.785 9.761"></polygon><polygon fill="#fff" points="460.448 99.31 451.404 99.31 384.297 40.777 384.297 32.887 460.448 99.31"></polygon><polygon fill="#fff" points="469.131 194.377 460.087 194.377 384.297 128.267 384.297 120.382 469.131 194.377"></polygon><polygon fill="#fff" points="96.976 177.664 96.976 194.377 90.398 194.377 7.427 123.446 7.427 104.828 11.773 104.828 96.976 177.664"></polygon><polygon fill="#fff" points="159.266 9.761 191.194 37.055 191.194 59.391 133.14 9.761 159.266 9.761"></polygon><polygon fill="#fff" points="264.017 99.31 237.891 99.31 195.862 63.38 195.862 41.044 264.017 99.31"></polygon><polygon fill="#e8e8e8" points="186.462 9.761 191.194 9.761 191.194 13.81 186.462 9.761"></polygon><polygon fill="#fff" points="285.411 60.859 285.411 94.353 195.862 17.799 195.862 9.761 225.642 9.761 285.411 60.859"></polygon><polygon fill="#fff" points="370.483 9.761 379.629 9.761 379.629 17.579 370.483 9.761"></polygon><polygon fill="#fff" points="473.846 64.628 473.846 98.122 384.297 21.568 384.297 9.761 409.664 9.761 473.846 64.628"></polygon><polygon fill="#fff" points="96.976 79.503 96.976 99.31 80.917 99.31 7.427 33.485 7.427 9.761 19.115 9.761 96.976 79.503"></polygon><polygon fill="#fff" points="191.194 163.896 191.194 194.377 187.051 194.377 101.645 117.878 101.645 104.828 125.25 104.828 191.194 163.896"></polygon></symbol></defs><use width="654.291" height="559.725" transform="translate(174.39 87) scale(1.31605)" xlink:href="#a"></use><use width="481.273" height="204.138" transform="translate(342 159.261) scale(1.20514)" xlink:href="#b"></use><use width="491.084" height="263.947" transform="translate(69.76 303) scale(.46962)" xlink:href="#c"></use><use width="502.962" height="449.193" transform="translate(98.469 669.027) scale(.40864)" xlink:href="#d"></use><use width="676.923" height="305.995" transform="translate(272.662 527) scale(1.05568)" xlink:href="#e"></use><use width="301.673" height="356.925" transform="translate(123.48 509) scale(.4506)" xlink:href="#f"></use><use width="258.554" height="935.569" transform="translate(983 292.776) scale(.59949)" xlink:href="#g"></use><use width="468.858" height="799.959" transform="translate(348 392.932) scale(.60573)" xlink:href="#h"></use><use width="536.974" height="814.423" transform="translate(635.075 387) scale(.60697)" xlink:href="#i"></use></svg>